<svg xmlns="http://www.w3.org/2000/svg" width="122" height="102" viewBox="0 0 122 102">
  <g id="noun-vector-pen-4176116" transform="translate(-139 -104)">
    <path id="Path_1564" data-name="Path 1564" d="M170.711,179.593a42.453,42.453,0,0,1,36.055-41.947,2.233,2.233,0,1,0-.665-4.417,46.928,46.928,0,0,0-39.857,46.364,2.233,2.233,0,0,0,4.465,0Z" transform="translate(-19.548 -21.007)" fill="#cc3a4d" stroke="#fff" stroke-width="2" fill-rule="evenodd"/>
    <path id="Path_1565" data-name="Path 1565" d="M369.4,137.644a42.452,42.452,0,0,1,36.055,41.947,2.233,2.233,0,1,0,4.465,0,46.93,46.93,0,0,0-39.857-46.364,2.233,2.233,0,0,0-.665,4.417Z" transform="translate(-156.616 -21.005)" fill="#cc3a4d" stroke="#fff" stroke-width="2" fill-rule="evenodd"/>
    <path id="Path_1566" data-name="Path 1566" d="M157.862,308.483a2.234,2.234,0,0,0-2.233-2.233h-13.4A2.234,2.234,0,0,0,140,308.483v13.4a2.234,2.234,0,0,0,2.233,2.233h13.4a2.234,2.234,0,0,0,2.233-2.233Zm-4.465,2.233v8.931h-8.931v-8.931Z" transform="translate(0 -142.213)" fill="#cc3a4d" stroke="#fff" stroke-width="2" fill-rule="evenodd"/>
    <path id="Path_1567" data-name="Path 1567" d="M332.862,107.233A2.234,2.234,0,0,0,330.629,105h-13.4A2.234,2.234,0,0,0,315,107.233v13.4a2.234,2.234,0,0,0,2.233,2.233h13.4a2.234,2.234,0,0,0,2.233-2.233Zm-4.465,2.233V118.4h-8.931v-8.931Z" transform="translate(-123.931)" fill="#cc3a4d" stroke="#fff" stroke-width="2" fill-rule="evenodd"/>
    <path id="Path_1568" data-name="Path 1568" d="M507.862,308.483a2.234,2.234,0,0,0-2.233-2.233h-13.4A2.234,2.234,0,0,0,490,308.483v13.4a2.234,2.234,0,0,0,2.233,2.233h13.4a2.234,2.234,0,0,0,2.233-2.233Zm-4.465,2.233v8.931h-8.931v-8.931Z" transform="translate(-247.862 -142.213)" fill="#cc3a4d" stroke="#fff" stroke-width="2" fill-rule="evenodd"/>
    <path id="Path_1569" data-name="Path 1569" d="M369.733,135.715h31.258a2.233,2.233,0,1,0,0-4.465H369.733a2.233,2.233,0,0,0,0,4.465Z" transform="translate(-156.62 -19.552)" fill="#cc3a4d" stroke="#fff" stroke-width="2" fill-rule="evenodd"/>
    <path id="Path_1570" data-name="Path 1570" d="M194.733,135.715h31.258a2.233,2.233,0,1,0,0-4.465H194.733a2.233,2.233,0,0,0,0,4.465Z" transform="translate(-39.104 -19.552)" fill="#cc3a4d" stroke="#fff" stroke-width="2" fill-rule="evenodd"/>
    <path id="Path_1571" data-name="Path 1571" d="M148.931,105a8.931,8.931,0,1,0,8.931,8.931A8.934,8.934,0,0,0,148.931,105Zm0,4.465a4.465,4.465,0,1,1-4.465,4.465A4.467,4.467,0,0,1,148.931,109.465Z" fill="#cc3a4d" stroke="#fff" stroke-width="2" fill-rule="evenodd"/>
    <path id="Path_1572" data-name="Path 1572" d="M498.931,105a8.931,8.931,0,1,0,8.931,8.931A8.934,8.934,0,0,0,498.931,105Zm0,4.465a4.465,4.465,0,1,1-4.465,4.465A4.467,4.467,0,0,1,498.931,109.465Z" transform="translate(-247.862)" fill="#cc3a4d" stroke="#fff" stroke-width="2" fill-rule="evenodd"/>
    <path id="Path_1573" data-name="Path 1573" d="M280.165,193.493a2.231,2.231,0,0,0-3.716,0l-22.327,33.488a2.228,2.228,0,0,0-.139,2.237l8.931,17.862a2.231,2.231,0,0,0,2,1.235H291.7a2.229,2.229,0,0,0,2-1.235l8.931-17.862a2.228,2.228,0,0,0-.139-2.237Zm-1.858,5.263,19.751,29.628-7.734,15.469H266.291l-7.734-15.469,19.751-29.628Z" transform="translate(-78.308 -54.48)" fill="#cc3a4d" stroke="#fff" stroke-width="2" fill-rule="evenodd"/>
    <path id="Path_1574" data-name="Path 1574" d="M341.25,194.733v29.025a2.233,2.233,0,0,0,4.465,0V194.733a2.233,2.233,0,0,0-4.465,0Z" transform="translate(-143.483 -60.896)" fill="#cc3a4d" stroke="#fff" stroke-width="2" fill-rule="evenodd"/>
    <path id="Path_1575" data-name="Path 1575" d="M335.19,317.684a6.7,6.7,0,1,0-9.471,0A6.7,6.7,0,0,0,335.19,317.684Zm-3.157-3.157a2.232,2.232,0,1,1,0-3.157A2.233,2.233,0,0,1,332.034,314.528Z" transform="translate(-130.454 -142.666)" fill="#cc3a4d" stroke="#fff" stroke-width="2" fill-rule="evenodd"/>
    <path id="Path_1576" data-name="Path 1576" d="M320.008,395.983a2.234,2.234,0,0,0-2.233-2.233H290.983a2.234,2.234,0,0,0-2.233,2.233v11.164a2.234,2.234,0,0,0,2.233,2.233h26.793a2.234,2.234,0,0,0,2.233-2.233Zm-4.465,2.233v6.7H293.215v-6.7Z" transform="translate(-104.379 -204.379)" fill="#cc3a4d" stroke="#fff" stroke-width="2" fill-rule="evenodd"/>
  </g>
</svg>
