<svg xmlns="http://www.w3.org/2000/svg" width="122" height="146.771" viewBox="0 0 122 146.771">
  <g id="noun-certificate-1496089" transform="translate(-147.796 -26.999)">
    <path id="Path_1659" data-name="Path 1659" d="M148.985,103.492a2.5,2.5,0,0,0,.546.821l30.333,30.348a2.493,2.493,0,0,0,1.8.763h22.176l-.586,4.768a2.507,2.507,0,0,0,2.011,2.764l8.366,1.621.043.08v25.569a2.506,2.506,0,0,0,3.8,2.146l11.249-6.785L240,172.374a2.5,2.5,0,0,0,3.8-2.146V144.639l.034-.058,8.366-1.621a2.5,2.5,0,0,0,2.011-2.764l-.586-4.771h3.752A11.436,11.436,0,0,0,268.8,124V39.421A11.436,11.436,0,0,0,257.373,28H160.218A11.436,11.436,0,0,0,148.8,39.421v63.124a2.481,2.481,0,0,0,.178.913c0,.012.007.024.012.036Zm30.172,23.376-21.811-21.821h15.4a6.421,6.421,0,0,1,6.413,6.413Zm50.853,33.646a2.506,2.506,0,0,0-2.585,0l-8.742,5.273V152.98a2.5,2.5,0,0,0,2.326.113l7.722-3.612,7.722,3.612a2.493,2.493,0,0,0,1.06.238,2.534,2.534,0,0,0,1.278-.352V165.8Zm11.72-20.632a2.491,2.491,0,0,0-1.715,1.248l-3.559,6.435-6.663-3.116a2.516,2.516,0,0,0-2.125,0l-6.662,3.116-3.56-6.436a2.5,2.5,0,0,0-1.715-1.248l-7.221-1.4.9-7.3a2.508,2.508,0,0,0-.656-2.014l-5.015-5.379,5.017-5.38a2.513,2.513,0,0,0,.655-2.014l-.9-7.3,7.222-1.4a2.491,2.491,0,0,0,1.715-1.248l3.559-6.435,6.662,3.116a2.5,2.5,0,0,0,2.122,0l6.663-3.116,3.559,6.436a2.5,2.5,0,0,0,1.715,1.248l7.222,1.4-.9,7.3a2.507,2.507,0,0,0,.656,2.014l5.015,5.379-5.015,5.38a2.51,2.51,0,0,0-.656,2.014l.9,7.3ZM160.218,33.007h97.158a6.421,6.421,0,0,1,6.413,6.413V124a6.421,6.421,0,0,1-6.413,6.413H254.4l4.579-4.911a2.5,2.5,0,0,0,0-3.417l-5.809-6.232,1.04-8.46a2.5,2.5,0,0,0-2.011-2.765L243.834,103l-4.125-7.46a2.505,2.505,0,0,0-3.253-1.057L228.733,98.1l-7.722-3.612a2.507,2.507,0,0,0-3.253,1.057L213.632,103l-8.368,1.621a2.5,2.5,0,0,0-2.011,2.764l1.039,8.46-5.811,6.234a2.507,2.507,0,0,0,0,3.417l4.582,4.914h-18.9V111.459a11.436,11.436,0,0,0-11.423-11.423H153.807V39.42a6.421,6.421,0,0,1,6.413-6.413Z" fill="#cc3a4d" stroke="#fff" stroke-width="2"/>
    <path id="Path_1660" data-name="Path 1660" d="M214.291,87.973H265.3a2.22,2.22,0,0,0,0-4.44H214.291a2.22,2.22,0,0,0,0,4.44Z" transform="translate(-42.072 -40.856)" fill="#cc3a4d" stroke="#fff" stroke-width="2"/>
    <path id="Path_1661" data-name="Path 1661" d="M436.921,87.973h9.629a2.22,2.22,0,0,0,0-4.44h-9.629a2.22,2.22,0,0,0,0,4.44Z" transform="translate(-199.171 -40.856)" fill="#cc3a4d" stroke="#fff" stroke-width="2"/>
    <path id="Path_1662" data-name="Path 1662" d="M214.291,154.36h25.6a2.22,2.22,0,1,0,0-4.44h-25.6a2.22,2.22,0,0,0,0,4.441Z" transform="translate(-43.563 -85.415)" fill="#cc3a4d" stroke="#fff" stroke-width="2"/>
    <path id="Path_1663" data-name="Path 1663" d="M352.8,149.92H340.67a2.22,2.22,0,0,0,0,4.44H352.8a2.22,2.22,0,0,0,0-4.44Z" transform="translate(-131.914 -85.416)" fill="#cc3a4d" stroke="#fff" stroke-width="2"/>
    <path id="Path_1664" data-name="Path 1664" d="M429.562,149.92H413.828a2.22,2.22,0,1,0,0,4.44h15.733a2.22,2.22,0,0,0,0-4.441Z" transform="translate(-182.357 -85.416)" fill="#cc3a4d" stroke="#fff" stroke-width="2"/>
    <path id="Path_1665" data-name="Path 1665" d="M214.291,220.76h9.565a2.22,2.22,0,1,0,0-4.44h-9.565a2.22,2.22,0,0,0,0,4.441Z" transform="translate(-44.082 -131.934)" fill="#cc3a4d" stroke="#fff" stroke-width="2"/>
    <path id="Path_1666" data-name="Path 1666" d="M298.883,216.32H279.424a2.22,2.22,0,0,0,0,4.44h19.459a2.22,2.22,0,0,0,0-4.44Z" transform="translate(-88.856 -131.935)" fill="#cc3a4d" stroke="#fff" stroke-width="2"/>
    <path id="Path_1667" data-name="Path 1667" d="M371.095,287.04a16.44,16.44,0,1,0,16.44,16.441A16.458,16.458,0,0,0,371.095,287.04Zm0,28.438a12,12,0,1,1,12-12A12.013,12.013,0,0,1,371.095,315.478Z" transform="translate(-141.351 -178.77)" fill="#cc3a4d" stroke="#fff" stroke-width="2"/>
    <path id="Path_1668" data-name="Path 1668" d="M390.017,312.75a9.625,9.625,0,0,0-2.746.4,2.221,2.221,0,0,0,1.266,4.257,5.205,5.205,0,1,1-3.722,4.99,5.118,5.118,0,0,1,.518-2.263,2.22,2.22,0,1,0-3.995-1.938,9.547,9.547,0,0,0-.962,4.2,9.644,9.644,0,1,0,9.64-9.646Z" transform="translate(-160.784 -198.13)" fill="#cc3a4d" stroke="#fff" stroke-width="2"/>
  </g>
</svg>
