<svg xmlns="http://www.w3.org/2000/svg" width="122" height="122.029" viewBox="0 0 122 122.029">
  <g id="noun-online-game-development-4382321" transform="translate(-68.996 0.999)">
    <path id="Path_1686" data-name="Path 1686" d="M538.493,350.8a1.823,1.823,0,0,0,1.824-1.824v-1.824a1.824,1.824,0,1,0-3.649,0v1.824a1.823,1.823,0,0,0,1.824,1.824Z" transform="translate(-364.919 -270.989)" fill="#cc3a4d" stroke="#fff" stroke-width="2"/>
    <path id="Path_1687" data-name="Path 1687" d="M512.315,373.33H510.49a1.825,1.825,0,0,0,0,3.65h1.824a1.825,1.825,0,1,0,0-3.65Z" transform="translate(-344.237 -293.089)" fill="#cc3a4d" stroke="#fff" stroke-width="2"/>
    <path id="Path_1688" data-name="Path 1688" d="M538.492,392a1.824,1.824,0,0,0-1.824,1.824v1.825a1.824,1.824,0,1,0,3.649,0v-1.825A1.824,1.824,0,0,0,538.492,392Z" transform="translate(-364.919 -307.612)" fill="#cc3a4d" stroke="#fff" stroke-width="2"/>
    <path id="Path_1689" data-name="Path 1689" d="M560.8,375.159a1.824,1.824,0,0,0-1.824-1.825h-1.824a1.825,1.825,0,1,0,0,3.65h1.824a1.824,1.824,0,0,0,1.824-1.824Z" transform="translate(-379.932 -293.092)" fill="#cc3a4d" stroke="#fff" stroke-width="2"/>
    <path id="Path_1690" data-name="Path 1690" d="M334.771,350.8h-3.649v-3.649a1.825,1.825,0,1,0-3.65,0v3.65h-3.65a1.825,1.825,0,0,0,0,3.65h3.65v3.65a1.825,1.825,0,0,0,3.65,0v-3.65h3.649a1.825,1.825,0,1,0,0-3.65Z" transform="translate(-197.274 -270.333)" fill="#cc3a4d" stroke="#fff" stroke-width="2"/>
    <path id="Path_1691" data-name="Path 1691" d="M418.982,410.67h-1.824a1.824,1.824,0,1,0,0,3.649h1.824a1.824,1.824,0,0,0,0-3.649Z" transform="translate(-270.995 -322.403)" fill="#cc3a4d" stroke="#fff" stroke-width="2"/>
    <path id="Path_1692" data-name="Path 1692" d="M465.652,410.67h-1.825a1.824,1.824,0,0,0,0,3.649h1.825a1.824,1.824,0,1,0,0-3.649Z" transform="translate(-307.618 -322.403)" fill="#cc3a4d" stroke="#fff" stroke-width="2"/>
    <path id="Path_1693" data-name="Path 1693" d="M189.957,81.816a18.4,18.4,0,0,0-15.962-17.7V10A10.011,10.011,0,0,0,164,0H80A10.011,10.011,0,0,0,70,10v90a10.011,10.011,0,0,0,10,10h34.08a10.714,10.714,0,0,0,10.74,10,10.851,10.851,0,0,0,9.448-5.546l2.48-4.454H164a9.889,9.889,0,0,0,2.987-.478l2.748,4.936A10.818,10.818,0,0,0,190,109.18v-26.6c0-.112-.014-.22-.016-.33S190,82.083,190,82c-.009-.062-.023-.124-.038-.184ZM74,10a6,6,0,0,1,6-6h84a6,6,0,0,1,6,6v6H74Zm0,90V20h96V64.112A17.819,17.819,0,0,0,158.594,70H145.415a17.966,17.966,0,0,0-13.556-6,18.306,18.306,0,0,0-17.816,17.813c0,.064-.038.12-.038.186s.016.164.016.246c0,.112-.016.222-.016.334V106H80a6,6,0,0,1-6-6Zm90,6H138.968l2.77-4.972A2,2,0,0,1,143.484,100H160.5a2,2,0,0,1,1.746,1.028l2.7,4.85a5.958,5.958,0,0,1-.958.122Zm22,3.18h0a6.82,6.82,0,0,1-12.772,3.328l-7.476-13.426A6,6,0,0,0,160.5,96h-17.02a6,6,0,0,0-5.242,3.082l-7.472,13.42a6.818,6.818,0,0,1-12.776-3.321V93.268a17.928,17.928,0,0,0,5,4.332,2,2,0,0,0,2-3.461,14.045,14.045,0,0,1-6.986-11.884A14.319,14.319,0,0,1,131.879,68h.116a14.093,14.093,0,0,1,13.558,10.5,2,2,0,0,0,1.935,1.5,2.027,2.027,0,0,0,.506-.062,2,2,0,0,0,1.438-2.437A18.106,18.106,0,0,0,148.1,74h7.8a18.056,18.056,0,0,0-1.332,3.5,2,2,0,0,0,1.43,2.437,2.073,2.073,0,0,0,.5.062,2,2,0,0,0,1.936-1.5A14.09,14.09,0,0,1,171.994,68h.116a14.315,14.315,0,0,1,13.867,14.242,14.042,14.042,0,0,1-6.984,11.886,2,2,0,1,0,2,3.462,17.946,17.946,0,0,0,5-4.323Z" fill="#cc3a4d" stroke="#fff" stroke-width="2"/>
    <path id="Path_1694" data-name="Path 1694" d="M110.982,37.332h-1.824a1.825,1.825,0,1,0,0,3.65h1.824a1.825,1.825,0,0,0,0-3.65Z" transform="translate(-30.037 -30.033)" fill="#cc3a4d" stroke="#fff" stroke-width="2"/>
    <path id="Path_1695" data-name="Path 1695" d="M157.652,37.332h-1.825a1.825,1.825,0,0,0,0,3.65h1.825a1.825,1.825,0,0,0,0-3.65Z" transform="translate(-65.922 -30.033)" fill="#cc3a4d" stroke="#fff" stroke-width="2"/>
    <path id="Path_1696" data-name="Path 1696" d="M204.315,37.332H202.49a1.825,1.825,0,0,0,0,3.65h1.824a1.825,1.825,0,1,0,0-3.65Z" transform="translate(-102.54 -30.033)" fill="#cc3a4d" stroke="#fff" stroke-width="2"/>
    <path id="Path_1697" data-name="Path 1697" d="M463.618,37.332h-9.124a1.825,1.825,0,0,0,0,3.65h9.124a1.825,1.825,0,0,0,0-3.65Z" transform="translate(-299.724 -30.033)" fill="#cc3a4d" stroke="#fff" stroke-width="2"/>
    <path id="Path_1698" data-name="Path 1698" d="M188.553,131.2a1.825,1.825,0,0,0-2.58,0L173.2,143.974a1.825,1.825,0,0,0,0,2.58l12.773,12.773a1.825,1.825,0,0,0,2.58-2.58L177.07,145.263l11.483-11.483a1.825,1.825,0,0,0,0-2.58Z" transform="translate(-80.329 -101.775)" fill="#cc3a4d" stroke="#fff" stroke-width="2"/>
    <path id="Path_1699" data-name="Path 1699" d="M369.2,159.424a1.824,1.824,0,0,0,2.58,0l12.773-12.773h0a1.826,1.826,0,0,0,0-2.58L371.781,131.3h0a1.824,1.824,0,0,0-2.58,2.58l11.483,11.483L369.2,156.843a1.825,1.825,0,0,0,0,2.58Z" transform="translate(-233.68 -101.867)" fill="#cc3a4d" stroke="#fff" stroke-width="2"/>
    <path id="Path_1700" data-name="Path 1700" d="M276.44,159.806a1.824,1.824,0,0,0,2.4-.958L289.784,133.3a1.824,1.824,0,0,0-3.353-1.437l-10.948,25.546h0a1.825,1.825,0,0,0,.958,2.4Z" transform="translate(-160.745 -101.865)" fill="#cc3a4d" stroke="#fff" stroke-width="2"/>
  </g>
</svg>
