<svg xmlns="http://www.w3.org/2000/svg" width="112.951" height="116.949" viewBox="0 0 112.951 116.949">
  <g id="noun-3d-animation-2298467" transform="translate(-77.593 -24.91)">
    <path id="Path_1577" data-name="Path 1577" d="M212.911,514.477H153.938a.75.75,0,1,1,0-1.5h58.973a.75.75,0,0,1,0,1.5Z" transform="translate(-64.098 -376.366)" fill="#cc3a4d" stroke="#cc3a4d" stroke-width="0.5"/>
    <path id="Path_1578" data-name="Path 1578" d="M345.6,529.787H304.868a.75.75,0,1,1,0-1.5H345.6a.75.75,0,0,1,0,1.5Z" transform="translate(-180.545 -388.178)" fill="#cc3a4d" stroke="#cc3a4d" stroke-width="0.5"/>
    <path id="Path_1579" data-name="Path 1579" d="M506.741,529.787h-5a.75.75,0,1,1,0-1.5h5a.75.75,0,1,1,0,1.5Z" transform="translate(-332.44 -388.178)" fill="#cc3a4d" stroke="#cc3a4d" stroke-width="0.5"/>
    <path id="Path_1580" data-name="Path 1580" d="M226.794,124.975H132.586a6.8,6.8,0,0,1-6.747-6.5V50.508a6.837,6.837,0,0,1,6.747-6.747h94.208a6.633,6.633,0,0,1,6.5,6.747v67.97A6.584,6.584,0,0,1,226.794,124.975ZM132.586,45.26a5.318,5.318,0,0,0-5.248,5.248v67.97a5.262,5.262,0,0,0,5.248,5h94.208a5.065,5.065,0,0,0,5-5V50.507a5.133,5.133,0,0,0-5-5.248Z" transform="translate(-42.997 -14.351)" fill="#cc3a4d" stroke="#cc3a4d" stroke-width="0.5"/>
    <path id="Path_1581" data-name="Path 1581" d="M245.956,126.982H151.748a.75.75,0,0,1-.75-.75V70.757a.75.75,0,0,1,.75-.75h94.208a.75.75,0,0,1,.75.75v55.475A.75.75,0,0,1,245.956,126.982Zm-93.458-1.5h92.709V71.506H152.5Z" transform="translate(-62.409 -34.601)" fill="#cc3a4d" stroke="#cc3a4d" stroke-width="0.5"/>
    <path id="Path_1582" data-name="Path 1582" d="M318.325,413.41H284.086a.75.75,0,0,1-.726-.938l5-19.242a.75.75,0,0,1,.726-.561h24.238a.749.749,0,0,1,.726.561l4.976,19.158a.74.74,0,0,1,.051.271.749.749,0,0,1-.75.75Zm-33.27-1.5h32.3l-4.608-17.742h-23.08Z" transform="translate(-164.511 -283.544)" fill="#cc3a4d" stroke="#cc3a4d" stroke-width="0.5"/>
    <path id="Path_1583" data-name="Path 1583" d="M281.841,482.877H217.368a.75.75,0,0,1-.75-.75v-4.5a.75.75,0,0,1,.75-.75h64.472a.75.75,0,0,1,.75.75v4.5A.75.75,0,0,1,281.841,482.877Zm-63.723-1.5h62.971v-3H218.118Z" transform="translate(-113.036 -348.515)" fill="#cc3a4d" stroke="#cc3a4d" stroke-width="0.5"/>
    <path id="Path_1584" data-name="Path 1584" d="M350.864,362.321a2.957,2.957,0,0,1-3-2.749,3,3,0,1,1,6,0A2.958,2.958,0,0,1,350.864,362.321Zm0-4.248a1.483,1.483,0,0,0-1.5,1.5,1.524,1.524,0,0,0,3,0A1.483,1.483,0,0,0,350.864,358.073Z" transform="translate(-214.296 -255.696)" fill="#cc3a4d" stroke="#cc3a4d" stroke-width="0.5"/>
    <path id="Path_1585" data-name="Path 1585" d="M104.708,62.394a.75.75,0,0,1-.75-.75V32.407a7.17,7.17,0,0,1,7.247-7.247h16.743a.75.75,0,1,1,0,1.5H111.206a5.687,5.687,0,0,0-5.747,5.747V61.644a.75.75,0,0,1-.75.75Z" transform="translate(-26.116)" fill="#cc3a4d" stroke="#cc3a4d" stroke-width="0.5"/>
    <path id="Path_1586" data-name="Path 1586" d="M189.048,257.944a.751.751,0,0,1-.544-.234l-4.5-4.748a.75.75,0,0,1,.014-1.046l4.5-4.5a.75.75,0,0,1,1.06,0l4.5,4.5a.75.75,0,0,1,.014,1.046l-4.5,4.748A.751.751,0,0,1,189.048,257.944Zm-3.452-5.483,3.452,3.644,3.452-3.644-3.452-3.452Z" transform="translate(-87.716 -171.309)" fill="#cc3a4d" stroke="#cc3a4d" stroke-width="0.5"/>
    <path id="Path_1587" data-name="Path 1587" d="M496.645,257.946a.747.747,0,0,1-.53-.22l-4.748-4.748a.749.749,0,0,1,.014-1.074l4.748-4.5a.75.75,0,0,1,1.046.014l4.5,4.5a.75.75,0,0,1,.014,1.046l-4.5,4.748a.748.748,0,0,1-.534.234Zm-3.673-5.483,3.658,3.658,3.466-3.659L496.63,249Z" transform="translate(-324.843 -171.312)" fill="#cc3a4d" stroke="#cc3a4d" stroke-width="0.5"/>
    <path id="Path_1588" data-name="Path 1588" d="M288.123,268.387h-1.249a.75.75,0,0,1,0-1.5h1.249a.75.75,0,0,1,0,1.5Zm-5.747,0h-1.249a.75.75,0,0,1,0-1.5h1.249a.75.75,0,1,1,0,1.5Zm-5.747,0h-1.249a.75.75,0,0,1,0-1.5h1.249a.75.75,0,0,1,0,1.5Zm-5.747,0h-1.249a.75.75,0,1,1,0-1.5h1.249a.75.75,0,0,1,0,1.5Zm-5.747,0h-1.249a.75.75,0,0,1,0-1.5h1.249a.75.75,0,1,1,0,1.5Zm-5.747,0h-1.249a.75.75,0,0,1,0-1.5h1.249a.75.75,0,0,1,0,1.5Zm-5.747,0h-1.249a.75.75,0,0,1,0-1.5h1.249a.75.75,0,1,1,0,1.5Zm-5.747,0h-1.249a.75.75,0,1,1,0-1.5h1.249a.75.75,0,0,1,0,1.5Zm-5.747,0h-1.249a.75.75,0,0,1,0-1.5h1.249a.75.75,0,0,1,0,1.5Zm-5.747,0h-1.249a.75.75,0,0,1,0-1.5H236.4a.75.75,0,0,1,0,1.5Zm-5.747,0H229.4a.75.75,0,1,1,0-1.5h1.249a.75.75,0,0,1,0,1.5Z" transform="translate(-122.319 -186.5)" fill="#cc3a4d" stroke="#cc3a4d" stroke-width="0.5"/>
    <path id="Path_1589" data-name="Path 1589" d="M272.922,165.186a.749.749,0,0,1-.194-.026l-13.994-3.748a.75.75,0,0,1-.556-.724V142.946a.75.75,0,0,1,.944-.724l13.994,3.748a.75.75,0,0,1,.556.724v17.742a.751.751,0,0,1-.751.75Zm-13.244-5.074,12.495,3.347v-16.19l-12.495-3.347Z" transform="translate(-145.101 -90.297)" fill="#cc3a4d" stroke="#cc3a4d" stroke-width="0.5"/>
    <path id="Path_1590" data-name="Path 1590" d="M320.178,170.248a.751.751,0,0,1-.75-.75V151.756a.75.75,0,0,1,.552-.724l8.246-2.249a.75.75,0,0,1,.947.724v1.42l5.187,1.353a.75.75,0,0,1,.56.726V165.75a.749.749,0,0,1-.556.724l-13.994,3.748a.75.75,0,0,1-.194.026Zm.75-17.92v16.193l12.495-3.347v-11.59l-5.187-1.353a.75.75,0,0,1-.56-.726v-1.017Z" transform="translate(-192.357 -95.359)" fill="#cc3a4d" stroke="#cc3a4d" stroke-width="0.5"/>
    <path id="Path_1591" data-name="Path 1591" d="M272.922,134.783a.75.75,0,0,1-.194-.026l-13.994-3.748a.749.749,0,0,1,0-1.448l13.994-3.748a.754.754,0,0,1,.391,0l8.246,2.249a.75.75,0,0,1,.552.724v3a.75.75,0,0,1-.552.724l-8.246,2.249a.818.818,0,0,1-.2.025Zm-11.1-4.5,11.094,2.972,7.5-2.046v-1.854l-7.5-2.046Z" transform="translate(-145.101 -77.637)" fill="#cc3a4d" stroke="#cc3a4d" stroke-width="0.5"/>
    <path id="Path_1592" data-name="Path 1592" d="M366.018,120.4a.722.722,0,0,1-.2-.029l-9.746-2.749a.749.749,0,0,1-.546-.721V104.661a.75.75,0,0,1,.936-.726l9.746,2.5a.749.749,0,0,1,.563.726v12.495a.749.749,0,0,1-.75.75Zm-9-4.066,8.246,2.326V107.74l-8.246-2.114Z" transform="translate(-220.205 -60.758)" fill="#cc3a4d" stroke="#cc3a4d" stroke-width="0.5"/>
    <path id="Path_1593" data-name="Path 1593" d="M398.928,120.4a.749.749,0,0,1-.75-.75V107.159a.75.75,0,0,1,.563-.726l9.746-2.5a.75.75,0,0,1,.936.726V116.9a.749.749,0,0,1-.546.721l-9.746,2.749a.757.757,0,0,1-.2.029Zm.75-12.663v10.923l8.246-2.326V105.625Z" transform="translate(-253.115 -60.758)" fill="#cc3a4d" stroke="#cc3a4d" stroke-width="0.5"/>
    <path id="Path_1594" data-name="Path 1594" d="M366.018,99.468a.779.779,0,0,1-.187-.023l-9.746-2.5a.75.75,0,0,1,0-1.453l9.746-2.5a.751.751,0,0,1,.372,0l9.746,2.5a.75.75,0,0,1,0,1.453l-9.746,2.5A.767.767,0,0,1,366.018,99.468Zm-6.727-3.249,6.727,1.725,6.727-1.725-6.727-1.725Z" transform="translate(-220.205 -52.318)" fill="#cc3a4d" stroke="#cc3a4d" stroke-width="0.5"/>
    <path id="Path_1595" data-name="Path 1595" d="M373.583,191.993a.743.743,0,0,1-.2-.028l-10.745-3a.749.749,0,0,1-.548-.722V187a.749.749,0,0,1,.578-.73l3.671-.864v-9.652a.749.749,0,0,1,.944-.724l6.5,1.749a.75.75,0,0,1,.555.724v13.744a.751.751,0,0,1-.751.751Zm-10-4.318,9.246,2.58V178.074l-5-1.346V186a.749.749,0,0,1-.578.73l-3.671.864Z" transform="translate(-225.27 -115.606)" fill="#cc3a4d" stroke="#cc3a4d" stroke-width="0.5"/>
    <path id="Path_1596" data-name="Path 1596" d="M409.868,187.776a.749.749,0,0,1-.75-.75V173.283a.75.75,0,0,1,.552-.724l11-3a.75.75,0,0,1,.947.724v13.744a.75.75,0,0,1-.552.724l-11,3A.783.783,0,0,1,409.868,187.776Zm.75-13.922v12.19l9.5-2.59v-12.19Z" transform="translate(-261.556 -111.389)" fill="#cc3a4d" stroke="#cc3a4d" stroke-width="0.5"/>
    <path id="Path_1597" data-name="Path 1597" d="M387.928,168.135a.751.751,0,0,1-.195-.026l-6.5-1.749a.75.75,0,0,1-.555-.724v-2.249a.75.75,0,0,1,.932-.727l3.809.952,6.309-1.7a.758.758,0,0,1,.377,0l7,1.749a.75.75,0,0,1,.015,1.45l-11,3a.729.729,0,0,1-.2.027Zm-5.747-3.074,5.746,1.547,8.031-2.19-4.025-1.007-6.309,1.7a.758.758,0,0,1-.377,0l-3.067-.767Z" transform="translate(-239.615 -105.489)" fill="#cc3a4d" stroke="#cc3a4d" stroke-width="0.5"/>
    <path id="Path_1598" data-name="Path 1598" d="M219.387,529.787H203.144a.75.75,0,0,1,0-1.5h16.243a.75.75,0,1,1,0,1.5Z" transform="translate(-102.062 -388.178)" fill="#cc3a4d" stroke="#cc3a4d" stroke-width="0.5"/>
    <path id="Path_1599" data-name="Path 1599" d="M457.331,120.124h-1.249a.75.75,0,0,1,0-1.5h1.249a.75.75,0,1,1,0,1.5Zm-5.747,0h-1.249a.75.75,0,0,1,0-1.5h1.249a.75.75,0,1,1,0,1.5Zm7.747-2.5a.75.75,0,0,1-.75-.75v-1.249a.75.75,0,1,1,1.5,0v1.249A.75.75,0,0,1,459.33,117.625Zm0-5.747a.75.75,0,0,1-.75-.75v-1.249a.75.75,0,1,1,1.5,0v1.249A.75.75,0,0,1,459.33,111.878Zm0-5.747a.75.75,0,0,1-.75-.75v-1.249a.75.75,0,1,1,1.5,0v1.249A.75.75,0,0,1,459.33,106.13Zm0-5.747a.75.75,0,0,1-.75-.75V98.384a.75.75,0,1,1,1.5,0v1.249A.75.75,0,0,1,459.33,100.383Zm0-5.747a.75.75,0,0,1-.75-.75V92.636a.75.75,0,1,1,1.5,0v1.249A.75.75,0,0,1,459.33,94.636Z" transform="translate(-292.776 -51.482)" fill="#cc3a4d" stroke="#cc3a4d" stroke-width="0.5"/>
  </g>
</svg>
