<svg xmlns="http://www.w3.org/2000/svg" width="144" height="120.959" viewBox="0 0 144 120.959">
  <g id="Group_2" data-name="Group 2" transform="translate(-1293.563 -1561.186)">
    <path id="noun-integration-3266034" d="M155.812,34.684a2.14,2.14,0,0,0-2.131,2.148V47.838a48.241,48.241,0,0,0-14.42,5.984l-7.8-7.8a2.141,2.141,0,0,0-3.017,0l-12.46,12.461a2.138,2.138,0,0,0,0,3.016l7.579,7.58c-.611,1.1-1.207,2.2-1.91,3.238a2.14,2.14,0,1,0,3.536,2.4,48.653,48.653,0,0,0,2.954-5.006,2.14,2.14,0,0,0-.38-2.482l-7.246-7.25,9.427-9.427,7.267,7.266a2.138,2.138,0,0,0,2.7.251,44.179,44.179,0,0,1,16.313-6.744,2.14,2.14,0,0,0,1.721-2.1V38.963h13.346V49.2a2.14,2.14,0,0,0,1.738,2.1,44.157,44.157,0,0,1,16.313,6.756,2.139,2.139,0,0,0,2.716-.25l7.233-7.25,9.443,9.427-7.266,7.266a2.14,2.14,0,0,0-.25,2.7,44.21,44.21,0,0,1,6.744,16.316,2.141,2.141,0,0,0,2.1,1.722h10.262v13.341H210.09a2.139,2.139,0,0,0-2.1,1.738,44.157,44.157,0,0,1-6.756,16.313h0a2.14,2.14,0,0,0,.251,2.716l7.25,7.233-9.443,9.444-7.25-7.262h0a2.138,2.138,0,0,0-2.7-.255A44.191,44.191,0,0,1,173.027,138a2.14,2.14,0,0,0-1.738,2.1v10.266H157.943V140.132a2.139,2.139,0,0,0-1.721-2.1,44.243,44.243,0,0,1-16.33-6.761,2.139,2.139,0,0,0-2.7.255l-7.25,7.245-9.427-9.443,7.262-7.245a2.14,2.14,0,0,0,.255-2.7,44.42,44.42,0,0,1-2.687-4.546,2.14,2.14,0,1,0-3.807,1.955c.609,1.186,1.334,2.311,2.039,3.443l-7.6,7.6h0a2.139,2.139,0,0,0,0,3.017l12.46,12.46a2.139,2.139,0,0,0,3.017,0l7.784-7.784a48.285,48.285,0,0,0,14.437,6V152.5h0a2.14,2.14,0,0,0,2.131,2.148h17.625a2.14,2.14,0,0,0,2.131-2.148V141.489a48.281,48.281,0,0,0,14.42-5.987l7.8,7.8a2.139,2.139,0,0,0,3.017,0l12.46-12.46a2.139,2.139,0,0,0,0-3.017l-7.771-7.785a48.288,48.288,0,0,0,5.987-14.437h10.973a2.14,2.14,0,0,0,2.148-2.131V85.849a2.14,2.14,0,0,0-2.148-2.131H211.448a48.266,48.266,0,0,0-5.984-14.42l7.8-7.8h0a2.138,2.138,0,0,0,0-3.016L200.806,46.02a2.141,2.141,0,0,0-3.017,0L190,53.792a48.3,48.3,0,0,0-14.437-5.987V36.832a2.14,2.14,0,0,0-2.131-2.148ZM155.7,73.161a2.14,2.14,0,0,0-1.371,3.728l8.132,7.625H106.79a2.14,2.14,0,1,0,0,4.279h55.685l-8.148,7.646a2.145,2.145,0,1,0,2.938,3.126l12.063-11.341a2.144,2.144,0,0,0,.477-2.461,2.048,2.048,0,0,0-.1-.188,1.876,1.876,0,0,0-.113-.175l0,0,0,0q-.043-.06-.092-.117c-.034-.04-.071-.079-.109-.117l-.058-.058-.021-.021-.012-.009L157.265,73.758a2.143,2.143,0,0,0-1.567-.6Z" transform="translate(1212.461 1527.002)" fill="#cc3a4d" stroke="#fff" stroke-width="1"/>
    <path id="noun-integration-3266034-2" data-name="noun-integration-3266034" d="M118.905,81.161a2.14,2.14,0,0,1,1.371,3.728l-8.132,7.625h55.67a2.14,2.14,0,1,1,0,4.279H112.13l8.148,7.646a2.145,2.145,0,1,1-2.938,3.126L105.277,96.224a2.144,2.144,0,0,1-.477-2.461,2.048,2.048,0,0,1,.1-.188,1.876,1.876,0,0,1,.113-.175l0,0,0,0q.043-.06.092-.117c.034-.04.071-.079.109-.117l.058-.058.021-.021.012-.009L117.34,81.758a2.143,2.143,0,0,1,1.567-.6Z" transform="translate(1189.461 1535.664)" fill="#cc3a4d" stroke="#fff" stroke-width="1"/>
  </g>
</svg>
