<svg xmlns="http://www.w3.org/2000/svg" width="122" height="145.007" viewBox="0 0 122 145.007">
  <g id="noun-mobile-development-4449651" transform="translate(-147.75 -16.5)">
    <path id="Path_1669" data-name="Path 1669" d="M258.315,50.868H242.663V27.034A9.143,9.143,0,0,0,239.6,20.3a10.964,10.964,0,0,0-7.375-2.8H159.185a10.962,10.962,0,0,0-7.375,2.8,9.144,9.144,0,0,0-3.06,6.738V150.973a9.143,9.143,0,0,0,3.06,6.738,10.964,10.964,0,0,0,7.375,2.8h73.043a10.962,10.962,0,0,0,7.375-2.8,9.144,9.144,0,0,0,3.06-6.738V131.905h15.652a10.962,10.962,0,0,0,7.375-2.8,9.144,9.144,0,0,0,3.059-6.738V60.4a9.142,9.142,0,0,0-3.059-6.738,10.963,10.963,0,0,0-7.375-2.8Zm-49.565-28.6V24.65a2.505,2.505,0,0,1-2.609,2.383h-20.87a2.505,2.505,0,0,1-2.609-2.383V22.267Zm28.7,128.706a4.575,4.575,0,0,1-1.53,3.369,5.486,5.486,0,0,1-3.687,1.4H159.185a5.485,5.485,0,0,1-3.687-1.4,4.575,4.575,0,0,1-1.53-3.369V27.034a4.575,4.575,0,0,1,1.53-3.369,5.486,5.486,0,0,1,3.687-1.4h18.261V24.65A6.864,6.864,0,0,0,179.74,29.7a8.23,8.23,0,0,0,5.532,2.1h20.87a8.231,8.231,0,0,0,5.532-2.1,6.864,6.864,0,0,0,2.294-5.054V22.267h18.261a5.485,5.485,0,0,1,3.687,1.4,4.575,4.575,0,0,1,1.53,3.369V50.868H169.62a10.962,10.962,0,0,0-7.375,2.8,9.144,9.144,0,0,0-3.059,6.738v61.969a9.143,9.143,0,0,0,3.059,6.738,10.964,10.964,0,0,0,7.375,2.8h67.826Zm26.087-28.6A4.575,4.575,0,0,1,262,125.74a5.486,5.486,0,0,1-3.687,1.4h-88.7a5.485,5.485,0,0,1-3.687-1.4,4.575,4.575,0,0,1-1.53-3.369V60.4a4.575,4.575,0,0,1,1.53-3.369,5.486,5.486,0,0,1,3.687-1.4h88.7a5.485,5.485,0,0,1,3.687,1.4,4.575,4.575,0,0,1,1.53,3.369Z" fill="#cc3a4d" stroke="#fff" stroke-width="2"/>
    <path id="Path_1670" data-name="Path 1670" d="M275.113,220.5a2.384,2.384,0,0,0,3.371-3.371l-10.233-10.232,10.232-10.232h0a2.384,2.384,0,0,0-3.371-3.371L263.2,205.207a2.384,2.384,0,0,0,0,3.371Z" transform="translate(-79.311 -127.422)" fill="#cc3a4d" stroke="#fff" stroke-width="2"/>
    <path id="Path_1671" data-name="Path 1671" d="M415.293,193.284a2.384,2.384,0,0,0-3.371,3.371l10.233,10.232-10.232,10.232h0a2.384,2.384,0,1,0,3.371,3.371l11.917-11.917a2.384,2.384,0,0,0,0-3.371Z" transform="translate(-183 -127.418)" fill="#cc3a4d" stroke="#fff" stroke-width="2"/>
    <path id="Path_1672" data-name="Path 1672" d="M350.129,175.194A2.382,2.382,0,0,0,347,176.445l-14.3,33.368a2.382,2.382,0,1,0,4.379,1.877l14.3-33.368a2.382,2.382,0,0,0-1.251-3.128Z" transform="translate(-127.976 -114.598)" fill="#cc3a4d" stroke="#fff" stroke-width="2"/>
    <path id="Path_1673" data-name="Path 1673" d="M258.485,341.25h-28.6a2.383,2.383,0,1,0,0,4.767h28.6a2.384,2.384,0,0,0,0-4.767Z" transform="translate(-54.386 -235.563)" fill="#cc3a4d" stroke="#fff" stroke-width="2"/>
    <path id="Path_1674" data-name="Path 1674" d="M249.039,376.25H229.972a2.384,2.384,0,0,0,0,4.767h19.068a2.384,2.384,0,0,0,0-4.767Z" transform="translate(-54.795 -261.029)" fill="#cc3a4d" stroke="#fff" stroke-width="2"/>
    <path id="Path_1675" data-name="Path 1675" d="M264.972,494.767h19.068a2.384,2.384,0,0,0,0-4.767H264.972a2.384,2.384,0,0,0,0,4.767Z" transform="translate(-79.111 -343.794)" fill="#cc3a4d" stroke="#fff" stroke-width="2"/>
  </g>
</svg>
