<svg id="Layer_1" data-name="Layer 1" xmlns="http://www.w3.org/2000/svg" viewBox="0 0 264.46 97.01"><defs><style>.cls-1{fill:#17244d;}.cls-2{fill:#cc3a4d;}</style></defs><path class="cls-1" d="M191.78,253.67V206.16h9.51v47.51Z" transform="translate(-117.97 -201.13)"/><path class="cls-1" d="M244.33,229.06l21.19,24.61h-12L238.16,235.8l-15,17.87H211.27l21.09-24.61-19.67-22.9h11.88l14,16.15" transform="translate(-117.97 -201.13)"/><path class="cls-1" d="M344.41,220.89v32.78h-9.5V206.16h8.55l29.46,32.78V206.16h9.5v47.51h-8.55Z" transform="translate(-117.97 -201.13)"/><path class="cls-2" d="M130.34,267h30.51v5.49H148.64v25h-6.1v-25h-12.2Z" transform="translate(-117.97 -201.13)"/><path class="cls-2" d="M210.57,272.52v7h17.69V285H210.57v7h23.79v5.49H204.47V267h29.89v5.49Z" transform="translate(-117.97 -201.13)"/><path class="cls-2" d="M301.16,285h6.53c-1.22,7.75-7.44,13.12-15.68,13.12a15.86,15.86,0,1,1,0-31.72c8.24,0,14.46,5.37,15.68,13.11h-6.53a9.17,9.17,0,0,0-9.15-7.32c-5.49,0-9.45,4.27-9.45,10.07s4,10.06,9.45,10.06A9.22,9.22,0,0,0,301.16,285Z" transform="translate(-117.97 -201.13)"/><path class="cls-2" d="M358,279.53h18.3V267h6.1v30.5h-6.1V285H358v12.51h-6.1V267H358Z" transform="translate(-117.97 -201.13)"/><rect class="cls-1" x="159.42" y="24.51" width="35.18" height="8.55"/><rect class="cls-2" x="159.42" y="5.03" width="44.69" height="8.55"/><rect class="cls-1" x="159.42" y="43.99" width="44.69" height="8.55"/><rect class="cls-2" x="123.55" y="14.73" width="9.23" height="9.23"/><rect class="cls-2" x="132.78" y="5.5" width="9.23" height="9.23"/><rect class="cls-2" x="142.01" width="5.5" height="5.5"/><path class="cls-1" d="M138.85,210.09v6l24.73,0h0a11.22,11.22,0,0,0-11.22-11.2l-10.61,0a11.16,11.16,0,0,0-9.43,5.2Z" transform="translate(-117.97 -201.13)"/><rect class="cls-1" x="8.72" y="11.31" width="9.88" height="9.88"/><rect class="cls-2" y="2.38" width="7.56" height="7.56"/><path class="cls-1" d="M174.8,228.5V217.3a11.21,11.21,0,0,1-11.2,11.22v0H140.28a10,10,0,0,0-9.95,10h.39l-.39,0V251.9h11.21V239.69h22.07a11.21,11.21,0,0,0,11.19-11.17Z" transform="translate(-117.97 -201.13)"/><path class="cls-2" d="M174.79,216.05a11.21,11.21,0,0,0-11.23-11.19h-11.2a11.22,11.22,0,0,1,11.22,11.2h0v12.45a11.21,11.21,0,0,0,11.2-11.22Z" transform="translate(-117.97 -201.13)"/><rect class="cls-2" x="132.78" y="23.96" width="5.5" height="5.5"/></svg>