<svg id="Layer_1" data-name="Layer 1" xmlns="http://www.w3.org/2000/svg" viewBox="0 0 591.8 150.33"><defs><style>.cls-1{fill:#17244d;}.cls-2{fill:#cc3a4d;}</style></defs><path class="cls-1" d="M490.09,495.86V422.23h14.73v73.63Z" transform="translate(-193.7 -414.44)"/><path class="cls-1" d="M571.52,457.72l32.84,38.14H585.81L562,468.18l-23.26,27.68H520.28L553,457.72l-30.48-35.49H540.9l21.64,25" transform="translate(-193.7 -414.44)"/><path class="cls-1" d="M726.6,445.06v50.8H711.87V422.23h13.26L770.77,473v-50.8H785.5v73.63H772.25Z" transform="translate(-193.7 -414.44)"/><path class="cls-2" d="M394.89,516.56h47.26v8.51H423.24v38.75h-9.45V525.07h-18.9Z" transform="translate(-193.7 -414.44)"/><path class="cls-2" d="M519.2,525.07v10.87h27.41v8.5H519.2v10.88h36.87v8.5H509.75V516.56h46.32v8.51Z" transform="translate(-193.7 -414.44)"/><path class="cls-2" d="M659.59,544.44H669.7c-1.89,12-11.53,20.33-24.29,20.33-14.18,0-24.58-10.4-24.58-24.58s10.4-24.58,24.58-24.58c12.76,0,22.4,8.32,24.29,20.33H659.59a14.22,14.22,0,0,0-14.18-11.35c-8.51,0-14.66,6.62-14.66,15.6s6.15,15.6,14.66,15.6A14.31,14.31,0,0,0,659.59,544.44Z" transform="translate(-193.7 -414.44)"/><path class="cls-2" d="M747.7,535.94h28.35V516.56h9.46v47.26h-9.46V544.44H747.7v19.38h-9.46V516.56h9.46Z" transform="translate(-193.7 -414.44)"/><rect class="cls-1" x="429.04" y="37.98" width="54.52" height="13.25"/><rect class="cls-2" x="429.04" y="7.79" width="69.24" height="13.25"/><rect class="cls-1" x="429.04" y="68.16" width="69.24" height="13.25"/><rect class="cls-2" x="373.46" y="22.83" width="14.3" height="14.3"/><rect class="cls-2" x="387.76" y="8.53" width="14.3" height="14.3"/><rect class="cls-2" x="402.06" width="8.53" height="8.53"/><path class="cls-1" d="M256.7,437.72v18.13l74.57-.11h0A33.79,33.79,0,0,0,297.42,422l-32,0A33.75,33.75,0,0,0,237,437.72Z" transform="translate(-193.7 -414.44)"/><rect class="cls-1" x="26.3" y="30.34" width="29.8" height="29.8"/><rect class="cls-2" y="3.44" width="22.8" height="22.8"/><path class="cls-1" d="M365.12,493.25v-.15l0-33.65a33.81,33.81,0,0,1-33.76,33.85v-.07l-70.33,0a30,30,0,0,0-30,30.08h1.19l-1.19.15,0,40.39h33.8l0-36.83,66.58,0a33.79,33.79,0,0,0,33.75-33.69Z" transform="translate(-193.7 -414.44)"/><path class="cls-2" d="M365.07,455.7a33.8,33.8,0,0,0-33.84-33.76l-33.81.05a33.79,33.79,0,0,1,33.85,33.75h0l.05,37.56a33.81,33.81,0,0,0,33.76-33.85Z" transform="translate(-193.7 -414.44)"/><rect class="cls-2" x="387.76" y="37.13" width="8.53" height="8.53"/><rect class="cls-2" x="203.61" y="7.79" width="14.78" height="13.25"/><path class="cls-1" d="M450.33,422.23H418.52v13.26h31.81a7,7,0,0,1,7.36,7.36v2.21a7,7,0,0,1-7.36,7.36h-53v43.44H412V465.67h38.29c13.25,0,22.08-8.69,22.08-21.35C472.41,431.07,463.58,422.23,450.33,422.23Z" transform="translate(-193.7 -414.44)"/></svg>