<svg xmlns="http://www.w3.org/2000/svg" width="120" height="125.645" viewBox="0 0 120 125.645">
  <g id="noun-development-2855601" transform="translate(-81.762 0.559)">
    <path id="Path_1654" data-name="Path 1654" d="M213.287,185.063a41.572,41.572,0,1,1,41.367-41.571A41.574,41.574,0,0,1,213.287,185.063Zm0-79.875a38.3,38.3,0,1,0,38.115,38.3,38.179,38.179,0,0,0-38.115-38.3Z" transform="translate(-71.41 -81.17)" fill="#cc3a4d"/>
    <path id="Path_1655" data-name="Path 1655" d="M153.308,125.086H130.463l-1.256-4.394a26.675,26.675,0,0,0-12.05-15.188l-.251-.125a25.57,25.57,0,0,0-19.079-2.887l-4.519,1.129L81.762,83.79,85.026,80.4a26,26,0,0,0,7.029-17.949V62.2a26.081,26.081,0,0,0-7.029-18.075l-3.263-3.389L93.185,20.9,97.7,22.034a25.574,25.574,0,0,0,19.079-2.887l.251-.125A25.56,25.56,0,0,0,129.084,3.96L130.34-.559h22.845l1.256,4.394a26.674,26.674,0,0,0,12.05,15.188l.251.125a25.57,25.57,0,0,0,19.079,2.887l4.519-1.129,11.423,19.832L198.5,44.127a26,26,0,0,0-7.029,17.949v.251A26.081,26.081,0,0,0,198.5,80.4l3.263,3.389L190.34,103.623l-4.271-1.131a25.574,25.574,0,0,0-19.079,2.887l-.251.125a26.034,26.034,0,0,0-12.05,15.062Zm-20.46-3.138h18.2l.628-2.259a28.406,28.406,0,0,1,13.556-16.946l.251-.125a28.821,28.821,0,0,1,21.464-3.263l2.259.5,9.037-15.69-1.632-1.632A28.784,28.784,0,0,1,188.7,62.326v-.251a28.485,28.485,0,0,1,7.908-20.084l1.632-1.632L188.956,24.67l-2.259.5a28.95,28.95,0,0,1-21.338-3.138l-.251-.125A29.135,29.135,0,0,1,151.551,4.963L150.923,2.7H132.848l-.628,2.259a28.406,28.406,0,0,1-13.556,16.946l-.125.125A28.821,28.821,0,0,1,97.075,25.3l-2.259-.627L85.653,40.36l1.632,1.632A28.784,28.784,0,0,1,95.193,62.2v.251a29,29,0,0,1-7.908,20.209l-1.632,1.632,9.163,15.689,2.259-.5a28.95,28.95,0,0,1,21.338,3.138l.251.125a29.135,29.135,0,0,1,13.556,16.946Z" transform="translate(0)" fill="#cc3a4d"/>
    <path id="Path_1656" data-name="Path 1656" d="M277.257,196.22a1.648,1.648,0,0,1-.7-.233l-17.7-10.247a1.338,1.338,0,0,1-.7-1.281,1.462,1.462,0,0,1,.7-1.281l17.7-10.247a1.478,1.478,0,0,1,1.4,0l17.7,10.247a1.338,1.338,0,0,1,.7,1.281,1.462,1.462,0,0,1-.7,1.281l-17.7,10.247A.855.855,0,0,1,277.257,196.22Zm-14.789-11.645,14.789,8.617,14.789-8.617-14.789-8.5Z" transform="translate(-135.367 -133.76)" fill="#cc3a4d"/>
    <path id="Path_1657" data-name="Path 1657" d="M277.257,256.651l-19.1-11.062v-21.31a1.4,1.4,0,1,1,2.794,0v19.562l16.3,9.432,16.3-9.432V224.279a1.4,1.4,0,1,1,2.794,0v21.31Z" transform="translate(-135.367 -171.882)" fill="#cc3a4d"/>
    <path id="Path_1658" data-name="Path 1658" d="M344.678,288.578a1.415,1.415,0,0,1-1.4-1.4V273.556a1.4,1.4,0,0,1,2.794,0v13.624a1.415,1.415,0,0,1-1.4,1.4Z" transform="translate(-202.792 -210.866)" fill="#cc3a4d"/>
  </g>
</svg>
