<svg xmlns="http://www.w3.org/2000/svg" width="121.474" height="149.242" viewBox="0 0 121.474 149.242">
  <g id="noun-quality-2869393" transform="translate(-121.787 0.748)">
    <path id="Path_1648" data-name="Path 1648" d="M175.754,404.523,156.9,429.573l-.164-14.42a2.168,2.168,0,0,0-.847-1.686,2.273,2.273,0,0,0-1.872-.416l-16.364,3.605,15.888-17.875a28.311,28.311,0,0,1-1.434-5.031l-20.068,22.577a3.235,3.235,0,0,0-.346,3.693,3.355,3.355,0,0,0,3.339,1.669,1.935,1.935,0,0,0,.215-.036l17.061-3.76.173,15.055h0a3.271,3.271,0,0,0,2.3,2.99A3.383,3.383,0,0,0,158.5,434.8l20.425-27.143h0a20.845,20.845,0,0,1-3.174-3.138Z" transform="translate(-6.538 -288.412)" fill="#cc3a4d" stroke="#fff" stroke-width="1.5"/>
    <path id="Path_1649" data-name="Path 1649" d="M404.562,441.073l-3.642,0h-2.267l7.9,8.888-16.365-3.606a2.265,2.265,0,0,0-1.872.416,2.165,2.165,0,0,0-.847,1.686l-.163,14.416-18.388-24.434a17.037,17.037,0,0,1-3.27,3.009l20.118,26.728a3.352,3.352,0,0,0,2.6,1.234,3.433,3.433,0,0,0,1.052-.166,3.291,3.291,0,0,0,2.308-3.057l.171-14.988,17.061,3.759a1.985,1.985,0,0,0,.216.036,3.344,3.344,0,0,0,3.339-1.67,3.253,3.253,0,0,0-.388-3.74Z" transform="translate(-177.119 -321.712)" fill="#cc3a4d" stroke="#fff" stroke-width="1.5"/>
    <path id="Path_1650" data-name="Path 1650" d="M246.706,91.875a32.359,32.359,0,1,0,22.845,9.478A32.318,32.318,0,0,0,246.706,91.875Zm0,60.19a27.9,27.9,0,1,1,19.693-8.17A27.87,27.87,0,0,1,246.706,152.065Z" transform="translate(-66.608 -66.96)" fill="#cc3a4d" stroke="#fff" stroke-width="1.5"/>
    <path id="Path_1651" data-name="Path 1651" d="M307.162,167.738l-8.862-1.25-3.951-7.771a2.23,2.23,0,0,0-3.976,0l-3.951,7.772-8.862,1.25h0a2.23,2.23,0,0,0-1.22,3.828l6.372,6.029-1.5,8.5a2.23,2.23,0,0,0,3.209,2.373l7.942-4.052,7.941,4.052a2.229,2.229,0,0,0,3.209-2.373l-1.5-8.5,6.372-6.029a2.23,2.23,0,0,0-1.22-3.828Zm-9.087,7.442h0a2.229,2.229,0,0,0-.664,2.007l.931,5.271-4.968-2.535h0a2.233,2.233,0,0,0-2.027,0l-4.968,2.535.931-5.271h0a2.229,2.229,0,0,0-.664-2.007l-3.882-3.673,5.429-.765a2.228,2.228,0,0,0,1.676-1.2l2.49-4.9,2.491,4.9a2.228,2.228,0,0,0,1.676,1.2l5.429.765Z" transform="translate(-112.194 -115.563)" fill="#cc3a4d" stroke="#fff" stroke-width="1.5"/>
    <path id="Path_1652" data-name="Path 1652" d="M192.022,102.231c.87-.2,2.8.666,4.429,1.439V98.757a9.3,9.3,0,0,0-5.478-.869c-2.634.593-4.521,3.03-6.346,5.388-1.146,1.48-2.879,3.718-3.8,3.728h0c-.914,0-2.756-2.276-3.855-3.636-1.881-2.325-3.826-4.729-6.482-5.272h0a5.852,5.852,0,0,0-1.171-.115c-2.256,0-4.618,1.192-6.913,2.351-1.738.88-4.371,2.205-5.242,1.816-.759-.336-1.358-3.09-1.715-4.736-.631-2.907-1.285-5.915-3.482-7.534-2.181-1.607-5.407-1.48-8.535-1.356-1.676.069-4.8.19-5.34-.431-.573-.664.176-3.463.624-5.137.754-2.818,1.532-5.733.335-8.032-1.213-2.317-4.153-3.517-7-4.676-1.557-.635-4.455-1.816-4.657-2.613s1.819-3.078,2.9-4.305c1.986-2.249,4.039-4.574,4.012-7.166-.031-2.575-2.128-4.851-4.157-7.051-1.117-1.21-3.2-3.465-3.011-4.275.18-.779,3.033-2.006,4.566-2.664,2.831-1.217,5.759-2.475,6.933-4.83,1.148-2.3.313-5.187-.5-7.979-.485-1.674-1.3-4.477-.722-5.172.6-.725,3.717-.661,5.579-.618,3.044.067,6.181.13,8.235-1.45,2.139-1.645,2.725-4.644,3.3-7.544.327-1.665.874-4.454,1.649-4.815.844-.394,3.592.928,5.234,1.719,2.736,1.319,5.559,2.68,8.174,2.094,2.632-.592,4.517-3.028,6.344-5.385,1.143-1.479,2.877-3.718,3.8-3.727h.005c.914,0,2.755,2.275,3.854,3.636,1.88,2.324,3.824,4.728,6.48,5.272,2.614.535,5.391-.875,8.087-2.238,1.738-.879,4.36-2.2,5.238-1.819.761.338,1.36,3.095,1.719,4.741.631,2.906,1.284,5.912,3.482,7.534,2.18,1.6,5.4,1.472,8.53,1.352,1.678-.07,4.8-.191,5.342.432.575.663-.175,3.464-.622,5.137-.754,2.818-1.532,5.733-.334,8.029,1.212,2.318,4.153,3.518,7,4.678,1.556.635,4.453,1.816,4.655,2.611s-1.819,3.078-2.9,4.305c-1.986,2.249-4.039,4.574-4.011,7.163s2.129,4.856,4.158,7.057c1.116,1.21,3.194,3.463,3.008,4.273-.178.781-3.034,2.009-4.568,2.668-.357.153-.716.308-1.073.465.308.1.617.213.917.342v0a11.6,11.6,0,0,1,3.723,2.52c2.6-1.187,4.952-2.582,5.514-5.033.7-3.033-1.726-5.66-4.069-8.2-1.258-1.363-2.979-3.232-2.99-4.142s1.675-2.829,2.907-4.224c2.278-2.579,4.633-5.246,3.876-8.252-.751-2.974-4.1-4.341-7.345-5.664-1.783-.727-4.224-1.723-4.672-2.578-.417-.8.219-3.175.683-4.91.839-3.135,1.787-6.688-.3-9.107-2-2.312-5.6-2.169-9.081-2.031-1.979.079-4.682.185-5.534-.441-.833-.614-1.372-3.094-1.766-4.905-.706-3.242-1.434-6.6-4.309-7.875-2.939-1.3-6.179.335-9.313,1.919-1.694.856-4.013,2.028-4.983,1.827-1.009-.207-2.62-2.2-3.8-3.655C185.094,2.707,182.886-.012,179.683,0c-3.212.033-5.372,2.821-7.462,5.519-1.14,1.472-2.7,3.487-3.689,3.71s-3.34-.915-5.06-1.742c-3.155-1.52-6.418-3.091-9.307-1.745-2.873,1.338-3.538,4.725-4.179,8-.354,1.8-.839,4.273-1.637,4.887-.745.573-3.349.519-5.25.478-3.57-.075-7.268-.154-9.294,2.3-2.049,2.477-1.022,6.024-.117,9.152.468,1.616,1.176,4.061.782,4.847-.438.881-2.871,1.927-4.649,2.69-3.2,1.377-6.514,2.8-7.2,5.773-.7,3.035,1.727,5.664,4.071,8.2,1.257,1.362,2.978,3.229,2.989,4.135.01.923-1.676,2.832-2.909,4.227-2.278,2.579-4.633,5.246-3.876,8.252.753,2.976,4.106,4.343,7.348,5.666,1.782.727,4.222,1.722,4.669,2.575.417.8-.219,3.178-.683,4.912-.839,3.134-1.789,6.687.3,9.107,2,2.31,5.6,2.166,9.079,2.03,1.976-.079,4.683-.187,5.538.444.833.613,1.371,3.093,1.765,4.9.706,3.243,1.433,6.6,4.307,7.872,2.939,1.31,6.18-.332,9.318-1.917,1.69-.855,4.008-2.027,4.982-1.825,1.008.207,2.62,2.2,3.8,3.655,2.128,2.632,4.33,5.352,7.5,5.352h.054c3.21-.034,5.369-2.822,7.456-5.518,1.142-1.474,2.7-3.492,3.694-3.714Z" transform="translate(0)" fill="#cc3a4d" stroke="#fff" stroke-width="1.5"/>
    <path id="Path_1653" data-name="Path 1653" d="M459.265,309.459a6.249,6.249,0,0,0-5.656-9.417l-3.931,0h0a8.38,8.38,0,0,0,.123-1.887c-.21-1.908-.765-6.935-4.955-8.787h0a6.888,6.888,0,0,0-2.822-.615c-.107,0-.214,0-.32.008a6.689,6.689,0,0,0-3.837,1.486,7.276,7.276,0,0,0-2.459,6.487c.008.162.018.323.018.482v.55c-.582,1.183-2.263,3.814-2.855,4.741l-.03.047c-.343.1-.734.217-1.137.333h0a4.432,4.432,0,0,0-2.483-.757h-4.458a4.461,4.461,0,0,0-4.457,4.458v13.374a4.461,4.461,0,0,0,4.457,4.458h4.458a4.413,4.413,0,0,0,2.824-1.037c.082,0,.158,0,.242,0,.392,0,.858-.014,1.325-.029.227-.007.454-.015.669-.02h0a7.508,7.508,0,0,0,2.041.918,4.443,4.443,0,0,0,1.149.153l13.38,0a6.476,6.476,0,0,0,6.519-6.417c0-.035,0-.07,0-.1a6.319,6.319,0,0,0,1.278-3.814c0-.18-.008-.357-.023-.53a6.307,6.307,0,0,0,.983-3.384,5.714,5.714,0,0,0-.044-.7Zm-30.343,10.5h-4.458V306.581h4.458Zm24.687-11.731s1.241.952,1.241,1.936h0a2.013,2.013,0,0,1-2.065,1.958,3.059,3.059,0,0,1,1.1,1.957,2.011,2.011,0,0,1-2.059,1.961,3.411,3.411,0,0,1,.782,1.957,2.009,2.009,0,0,1-2.06,1.959l-13.372,0c-.719-.193-1.248-.763-1.936-1.006a3.321,3.321,0,0,0-.871-.07c-.3,0-.644.01-.993.021V306.949a16.625,16.625,0,0,0,2.1-.691c.265-.56,4.4-6.616,4.4-7.81V297.21c0-1.221-.334-2.6.752-3.475a2.274,2.274,0,0,1,1.29-.526c.033,0,.066,0,.1,0a2.516,2.516,0,0,1,1.02.235c1.753.774,2.147,3.575,2.324,5.183a26.583,26.583,0,0,1-1.437,5.868l9.678.008h0a1.861,1.861,0,0,1,2.063,1.766,2.013,2.013,0,0,1-2.063,1.96Z" transform="translate(-217.628 -211.729)" fill="#cc3a4d" stroke="#fff" stroke-width="1.5"/>
  </g>
</svg>
