<svg xmlns="http://www.w3.org/2000/svg" width="416.056" height="407.104" viewBox="0 0 416.056 407.104">
  <g id="Badge" transform="translate(-47.972 -52.447)">
    <path id="Path_1713" data-name="Path 1713" d="M313.882,343.668a7.968,7.968,0,0,1-3.723-.922L256,314.27l-54.16,28.477a8,8,0,0,1-11.609-8.43L200.577,274l-43.816-42.711a8,8,0,0,1,4.434-13.641l60.555-8.8,27.078-54.867c2.7-5.469,11.648-5.469,14.352,0l27.078,54.867,60.551,8.8a8,8,0,0,1,4.434,13.641L311.425,274l10.344,60.313a8.006,8.006,0,0,1-7.887,9.351ZM179.538,231.153l35.223,34.336a8.012,8.012,0,0,1,2.3,7.078l-8.316,48.476,43.535-22.891a7.947,7.947,0,0,1,7.445,0l43.531,22.891-8.312-48.477a8.012,8.012,0,0,1,2.3-7.078l35.219-34.336-48.672-7.078a8,8,0,0,1-6.023-4.375L256,175.6l-21.766,44.1a8,8,0,0,1-6.023,4.375Z" fill="#fff"/>
    <path id="Path_1714" data-name="Path 1714" d="M256,400.8c-79.844,0-144.8-64.961-144.8-144.8S176.159,111.2,256,111.2,400.8,176.153,400.8,256,335.846,400.8,256,400.8Zm0-273.6A128.8,128.8,0,1,0,384.8,256,128.8,128.8,0,0,0,256,127.2Z" fill="#fff"/>
    <path id="Path_1715" data-name="Path 1715" d="M295.885,459.551a28.932,28.932,0,0,1-14.2-3.734l-19.363-10.883a12.929,12.929,0,0,0-12.648,0L230.3,455.817a28.84,28.84,0,0,1-37.848-8.625l-12.75-18.219a13.133,13.133,0,0,0-11.379-5.477l-22.2,1.367a28.765,28.765,0,0,1-30.316-24.2l-3.582-21.937a12.834,12.834,0,0,0-7.9-9.891L83.764,360.5A28.825,28.825,0,0,1,66.909,325.52l6.285-21.312a12.982,12.982,0,0,0-2.8-12.3L55.464,275.387a28.836,28.836,0,0,1,0-38.773L70.393,220.09a13.012,13.012,0,0,0,2.8-12.312l-6.289-21.312a28.833,28.833,0,0,1,16.855-34.977l20.582-8.351a12.988,12.988,0,0,0,7.887-9.875l3.586-21.945a28.756,28.756,0,0,1,30.32-24.2l22.2,1.375a12.855,12.855,0,0,0,11.371-5.484l12.747-18.2a28.816,28.816,0,0,1,37.855-8.617l19.359,10.875a13.032,13.032,0,0,0,12.66,0L281.7,56.184A28.839,28.839,0,0,1,319.546,64.8L332.3,83.02A12.939,12.939,0,0,0,343.667,88.5l22.211-1.367a28.912,28.912,0,0,1,30.316,24.2l3.586,21.945a13,13,0,0,0,7.887,9.883l20.57,8.344A28.829,28.829,0,0,1,445.1,186.481l-6.285,21.3a12.981,12.981,0,0,0,2.8,12.3l14.926,16.516a28.84,28.84,0,0,1,0,38.773L441.616,291.9a12.993,12.993,0,0,0-2.809,12.313l6.285,21.313A28.821,28.821,0,0,1,428.237,360.5l-20.578,8.352a12.992,12.992,0,0,0-7.891,9.883l-3.582,21.938a28.876,28.876,0,0,1-30.324,24.2l-22.2-1.367a12.9,12.9,0,0,0-11.383,5.484l-12.738,18.2a28.832,28.832,0,0,1-23.661,12.367ZM256,427.3a28.96,28.96,0,0,1,14.168,3.68l19.36,10.882a12.857,12.857,0,0,0,16.906-3.852l12.742-18.2a29.175,29.175,0,0,1,25.477-12.273l22.2,1.367A12.841,12.841,0,0,0,380.4,398.1l3.582-21.938a29.089,29.089,0,0,1,17.664-22.133l20.574-8.352a12.872,12.872,0,0,0,7.531-15.617l-6.285-21.313a29.093,29.093,0,0,1,6.281-27.57l14.922-16.516,0-.008a12.885,12.885,0,0,0,0-17.32l-14.922-16.508a29.09,29.09,0,0,1-6.277-27.57l6.285-21.3a12.876,12.876,0,0,0-7.535-15.625l-20.566-8.344a29.079,29.079,0,0,1-17.66-22.133L380.405,113.9a12.974,12.974,0,0,0-13.539-10.8l-22.211,1.367A28.96,28.96,0,0,1,319.194,92.2L306.44,73.981a12.893,12.893,0,0,0-16.9-3.851L270.167,81.02a29.093,29.093,0,0,1-28.324,0L222.475,70.137a12.873,12.873,0,0,0-16.91,3.852l-12.742,18.2a28.906,28.906,0,0,1-25.465,12.281l-22.211-1.375a12.984,12.984,0,0,0-13.539,10.8l-3.586,21.945a29.08,29.08,0,0,1-17.66,22.125l-20.578,8.352a12.885,12.885,0,0,0-7.531,15.625l6.289,21.3a29.11,29.11,0,0,1-6.277,27.57L67.331,247.34a12.879,12.879,0,0,0,0,17.313l14.926,16.516a29.093,29.093,0,0,1,6.281,27.57l-6.285,21.313a12.872,12.872,0,0,0,7.531,15.617l20.566,8.344a29.118,29.118,0,0,1,17.664,22.141L131.6,398.09a12.928,12.928,0,0,0,13.539,10.8l22.211-1.367a28.821,28.821,0,0,1,25.465,12.266l12.75,18.219a12.86,12.86,0,0,0,16.906,3.852l19.371-10.883A28.935,28.935,0,0,1,256,427.3Z" fill="#fff"/>
  </g>
</svg>
