<svg xmlns="http://www.w3.org/2000/svg" width="121" height="107.766" viewBox="0 0 121 107.766">
  <g id="noun-recruitment-1349790" transform="translate(-102.732 -33.094)">
    <path id="Path_1676" data-name="Path 1676" d="M284.581,104.227a17.709,17.709,0,0,0,15.691-25.958l6.7-5.065-1.885-2.493-6.52,4.929a17.72,17.72,0,1,0-13.986,28.587Zm0-32.334a14.572,14.572,0,0,1,11.5,5.63L282.1,88.091l-5.359-5.362-2.211,2.21,7.282,7.287,15.921-12.035a14.593,14.593,0,1,1-13.151-8.3Z" transform="translate(-121.363 -27.322)" fill="#cc3a4d" stroke="#fff" stroke-width="1"/>
    <path id="Path_1677" data-name="Path 1677" d="M150.681,184.085a13.242,13.242,0,1,0-13.241-13.243A13.255,13.255,0,0,0,150.681,184.085Zm0-23.357a10.117,10.117,0,1,1-10.116,10.116A10.126,10.126,0,0,1,150.681,160.729Z" transform="translate(-26.572 -92.55)" fill="#cc3a4d" stroke="#fff" stroke-width="1"/>
    <path id="Path_1678" data-name="Path 1678" d="M435.38,170.841A13.241,13.241,0,1,0,448.621,157.6a13.257,13.257,0,0,0-13.241,13.241Zm13.241-10.115A10.117,10.117,0,1,1,438.5,170.842,10.127,10.127,0,0,1,448.621,160.726Z" transform="translate(-247.172 -92.549)" fill="#cc3a4d" stroke="#fff" stroke-width="1"/>
    <path id="Path_1679" data-name="Path 1679" d="M223.232,271.288c0-11.761-10.517-21.33-23.446-21.33a25.331,25.331,0,0,0-10.809,2.4,33.695,33.695,0,0,0-51.017.231,25.222,25.222,0,0,0-11.281-2.629c-12.929,0-23.446,9.568-23.446,21.33v16.287h28.529v4.091h63.6v-4.091h27.874V271.288Zm-66.036-21-1.832,5.428-5.35-8.665a29.733,29.733,0,0,1,4.338-1.716Zm3.118,1.408h5.432l2.827,7.841-5.1,9.308-5.782-9.363Zm10.439,3.864-1.917-5.315,2.791-5.255a29.908,29.908,0,0,1,4.118,1.46Zm-2.565-11.272-2.275,4.284h-5.826l-2.358-4.1a31.042,31.042,0,0,1,5.833-.554,30.727,30.727,0,0,1,4.626.374Zm-61.519,40.16V271.288c0-10.038,8.977-18.2,20.011-18.2a21.551,21.551,0,0,1,9.389,2.13,26.786,26.786,0,0,0-4.3,14.506V284.45Zm85.256,4.091H181.153V273.427h-3.435v15.114H148.07V273.427h-3.435v15.114H135.2V269.719c0-8.648,4.716-16.3,11.915-20.982l16.539,26.781,15.1-27.553c7.9,4.585,13.169,12.611,13.169,21.752V288.54ZM219.8,284.45H195.359V269.719a26.828,26.828,0,0,0-4.453-14.742,21.628,21.628,0,0,1,8.88-1.895c11.034,0,20.011,8.166,20.011,18.2V284.45Z" transform="translate(0 -151.307)" fill="#cc3a4d" stroke="#fff" stroke-width="1"/>
    <path id="Path_1683" data-name="Path 1683" d="M339.28,33.594H342.4v4.584H339.28Z" transform="translate(-177.975)" fill="#cc3a4d" stroke="#fff" stroke-width="1"/>
    <path id="Path_1684" data-name="Path 1684" d="M234.27,141.2H239v3.125H234.27Z" transform="translate(-98.754 -81.124)" fill="#cc3a4d" stroke="#fff" stroke-width="1"/>
    <path id="Path_1685" data-name="Path 1685" d="M440.11,141.2h4.726v3.125H440.11Z" transform="translate(-253.881 -81.124)" fill="#cc3a4d" stroke="#fff" stroke-width="1"/>
  </g>
</svg>
